<svg width="639" height="200" viewBox="0 0 639 200" fill="none" xmlns="http://www.w3.org/2000/svg">
<g clip-path="url(#clip0_13_355)">
<mask id="mask0_13_355" style="mask-type:luminance" maskUnits="userSpaceOnUse" x="0" y="0" width="639" height="200">
<path d="M638.957 0H0V200H638.957V0Z" fill="white"/>
</mask>
<g mask="url(#mask0_13_355)">
<path d="M133.436 191.104C184.259 191.104 225.46 149.903 225.46 99.0797C225.46 48.256 184.259 7.05518 133.436 7.05518C82.6119 7.05518 41.4111 48.256 41.4111 99.0797C41.4111 149.903 82.6119 191.104 133.436 191.104Z" fill="#474E53"/>
<path d="M22.5242 164.806C23.4428 176.735 28.9236 185.913 35.5702 185.913C42.1595 185.913 47.6074 176.885 48.592 165.102C40.0463 167.116 31.2113 166.582 22.5242 164.806Z" fill="#7AC6D4"/>
<path d="M13.9608 162.689C14.3517 175.633 20.0842 185.913 27.1196 185.913H35.5704V180.191C37.8096 176.7 39.4105 171.842 40.0265 166.312C31.3329 166.778 22.4978 165.135 13.9608 162.689Z" fill="#7AC6D4"/>
<path d="M112.836 143.846H104.385C97.0979 143.846 91.1887 154.872 91.1887 168.472C91.1887 182.072 97.0958 193.098 104.385 193.098H112.836C120.123 193.098 126.032 182.072 126.032 168.472C126.032 154.872 120.125 143.846 112.836 143.846ZM113.748 187.414C108.607 187.414 104.44 178.932 104.44 168.472C104.44 158.012 108.607 149.53 113.748 149.53C118.889 149.53 123.056 158.012 123.056 168.472C123.056 178.932 118.889 187.414 113.748 187.414Z" fill="#7AC6D4"/>
<path d="M59.3992 119.065H26.9562L24.3969 121.419H59.3992V119.065Z" fill="#7AC6D4"/>
<path d="M17.8295 119.065V121.417H59.3991V119.065H17.8295ZM16.6018 129.852H58.1715V127.501H16.6018V129.852ZM15.3762 138.283H56.946V135.932H15.3762V138.283ZM14.1484 146.717H55.7181V144.365H14.1484V146.717Z" fill="#7AC6D4"/>
<path d="M56.9457 135.932H15.3762V138.286H56.9457V135.932Z" fill="#7AC6D4"/>
<path d="M201.158 135.133H189.377V31.1764L195.578 30.3724L178.25 25.7661H168.068C161.883 23.8891 159.239 24.4721 159.239 24.4721C157.777 24.5096 156.126 24.6046 154.355 24.7415C143.477 27.7292 133.648 33.4552 128.852 42.257C110.745 42.1555 91.0694 44.081 79.3393 47.2828C83.2169 43.1359 88.2893 38.2647 94.1942 34.2147C94.0286 34.2478 93.9136 34.2699 93.9136 34.2699C73.704 41.0669 63.7737 56.6834 60.4614 63.0165C55.5878 63.9463 52.8298 64.6285 52.8298 64.6285L46.8675 80.4791L50.8933 80.2208L46.5672 94.9518V85.984H43.1488L40.9409 88.1923V103.087C32.2338 105.591 22.4756 109.705 15.3586 113.516C41.4973 107.737 67.8764 112.273 67.8764 112.273C67.8764 112.273 61.3777 147.801 60.9915 152.878C22.3719 155.731 10.909 152.412 10.909 152.412C10.4475 144.924 10.8052 138.102 11.4743 132.31C10.9907 132.745 10.4939 133.225 9.98156 133.803C9.95947 133.827 9.93962 133.847 9.91975 133.869C9.64591 134.179 9.3699 134.521 9.09607 134.874C9.04527 134.94 8.9945 134.995 8.9437 135.062C8.69195 135.393 8.44241 135.757 8.1907 136.128C8.11781 136.236 8.04275 136.332 7.96987 136.442C7.74241 136.793 7.51941 137.177 7.29637 137.562C7.20582 137.718 7.11309 137.857 7.02254 138.021C6.82159 138.383 6.63168 138.783 6.43738 139.176C6.33137 139.39 6.22097 139.586 6.1172 139.812C5.93171 140.213 5.75944 140.655 5.58278 141.086C5.48122 141.333 5.37521 141.56 5.27806 141.819C5.09919 142.291 4.938 142.806 4.77238 143.314C4.69067 143.568 4.60014 143.8 4.52064 144.063C4.28659 144.851 4.06794 145.679 3.86919 146.551L6.08849 148.956L2.94397 151.361V171.893C2.94397 171.893 65.6617 178.179 94.8255 173.438V175.212H105.052C104.659 173.116 104.433 170.85 104.433 168.474C104.433 158.012 108.6 149.532 113.741 149.532C118.882 149.532 123.049 158.014 123.049 168.474C123.049 170.85 122.824 173.116 122.433 175.212H128.717L207.575 168.474V137.182H201.149V135.133H201.158ZM169.278 34.1616C178.707 36.0475 179.544 48.4092 179.544 48.4092C167.392 23.686 146.229 48.4092 146.229 48.4092C150.42 40.8681 159.849 32.2761 169.278 34.1616ZM130.279 103.411C130.279 103.221 130.442 103.063 130.632 103.056C130.698 103.054 130.764 103.052 130.831 103.049C133.041 102.996 134.479 104.317 135.044 105.946L140.584 99.2776L130.281 99.8031L134.989 75.8463L153.599 77.657V98.6153L143.426 99.134L134.967 109.314L134.956 109.305C134.461 110.46 133.452 111.409 131.866 111.734C131.356 111.838 130.926 111.884 130.643 111.904C130.44 111.92 130.281 111.759 130.281 111.555L130.279 103.411ZM126.032 70.3764L120.251 95.9675C120.251 95.9675 118.524 100.475 108.064 99.9402C108.064 99.9402 92.931 99.6951 76.1685 100.062L83.809 73.7926L126.032 70.3764ZM46.8697 101.592L54.4461 76.1665L79.3439 74.1524L71.7764 100.172C62.9654 100.421 54.031 100.852 46.8697 101.592ZM85.9332 147.509C84.0982 147.876 75.0731 149.298 65.6574 150.771C65.6574 150.771 65.6596 144.815 69.1264 141.267C74.8215 137.8 84.8313 133.679 87.4016 135.638C89.9697 137.597 87.7682 147.143 85.9332 147.509ZM67.1501 140.642C67.1501 140.642 75.5789 122.486 121.627 116.875C121.627 116.875 137.104 115.908 149.874 118.615C149.874 118.617 84.0672 125.714 67.1501 140.642ZM128.658 155.715L126.843 153.107L184.031 148.678L191.141 152.233L128.658 155.715Z" fill="#7AC6D4"/>
<path d="M204.98 33.6052V130.716H193.794V35.0562L204.98 33.6052ZM209.397 28.5793L189.377 31.1761V135.133H209.397V28.5793Z" fill="#7AC6D4"/>
<path d="M58.1715 129.853V127.499H17.7788L16.6018 128.581V129.853H58.1715Z" fill="#7AC6D4"/>
<path d="M55.7181 144.363H14.1484V146.715H55.7181V144.363Z" fill="#7AC6D4"/>
<path d="M147.794 77.657H139.657V98.6153H147.794V77.657Z" fill="#7AC6D4"/>
<path d="M136.996 97.2637L139.657 98.6153V77.657L136.996 79.0107V97.2637Z" fill="#7AC6D4"/>
<path d="M263.054 56.1466V60.8895H245.677V31.8365H262.883V36.6221H251.547V43.6408H261.926V48.3834H251.547V56.1466H263.054ZM269.073 60.8895V31.8365H275.687C277.488 31.8365 279.098 31.8932 280.515 32.0067C281.933 32.1202 283.351 32.3825 284.769 32.7935C286.187 33.2049 287.47 33.8144 288.619 34.6227C289.583 35.2748 290.405 36.0478 291.086 36.9411C291.767 37.8343 292.298 38.7702 292.681 39.7484C293.078 40.7125 293.369 41.776 293.553 42.9386C293.752 44.0874 293.851 45.25 293.851 46.427C293.851 48.8656 293.426 51.1132 292.575 53.169C291.738 55.2251 290.405 56.9122 288.576 58.231C287.612 58.9398 286.52 59.4929 285.301 59.8899C284.081 60.2868 282.826 60.5564 281.536 60.6981C280.246 60.8257 278.892 60.8895 277.474 60.8895H269.073ZM274.943 56.4018C275.269 56.4018 275.538 56.4089 275.751 56.423C275.964 56.423 276.191 56.4303 276.432 56.4445C278.148 56.4445 279.686 56.2389 281.047 55.8276C282.408 55.4021 283.571 54.7711 284.535 53.9346C285.514 53.084 286.265 52.0205 286.79 50.7445C287.314 49.454 287.577 47.9441 287.577 46.2141C287.577 44.4843 287.201 42.8537 286.449 41.3224C285.698 39.7911 284.62 38.6211 283.217 37.8132C282.635 37.4586 282.018 37.1892 281.366 37.0049C280.728 36.8064 280.048 36.6644 279.324 36.5794C278.615 36.4945 277.821 36.4377 276.942 36.4092C276.077 36.381 275.411 36.3668 274.943 36.3668V56.4018ZM332.368 60.8895H326.497V43.7257C326.583 41.1168 326.712 38.5006 326.88 35.8776H326.712C326.426 37.026 326.138 38.0328 325.837 38.8978L318.439 60.8895H313.034L306.761 42.726C305.981 40.4573 305.315 38.1745 304.762 35.8776H304.591C304.875 38.6849 305.017 41.23 305.017 43.5132V60.8895H299.445V31.8365H308.718L313.991 47.0862C314.816 49.5392 315.439 51.9211 315.865 54.2325C316.12 53.0132 316.359 51.9567 316.586 51.0635C316.828 50.1558 317.098 49.2484 317.396 48.3411L322.966 31.8365H332.368V60.8895ZM366.356 46.5546C366.356 49.4469 365.788 52.0346 364.653 54.3175C363.534 56.6003 361.905 58.3797 359.764 59.6561C357.623 60.9178 355.098 61.5487 352.19 61.5487C349.199 61.5487 346.626 60.9107 344.469 59.6346C342.316 58.3586 340.684 56.5721 339.58 54.2751C338.488 51.9638 337.942 49.3193 337.942 46.3417C337.942 43.3641 338.494 40.734 339.601 38.4512C340.706 36.1684 342.328 34.396 344.469 33.134C346.626 31.8576 349.199 31.2196 352.19 31.2196C354.46 31.2196 356.488 31.5954 358.273 32.3469C360.061 33.0984 361.549 34.1619 362.739 35.5374C363.933 36.9125 364.831 38.5291 365.442 40.3865C366.052 42.2438 366.356 44.3 366.356 46.5546ZM360.123 46.427C360.123 45.165 359.969 43.903 359.656 42.6411C359.344 41.3791 358.856 40.2236 358.187 39.1742C357.537 38.1248 356.706 37.2883 355.699 36.6644C354.693 36.0264 353.509 35.7073 352.147 35.7073C350.362 35.7073 348.865 36.2392 347.66 37.3024C346.469 38.3659 345.589 39.7273 345.025 41.3862C344.457 43.031 344.172 44.711 344.172 46.427C344.172 48.1426 344.457 49.8227 345.025 51.4675C345.589 53.0981 346.475 54.438 347.681 55.4874C348.902 56.5365 350.405 57.0613 352.19 57.0613C353.525 57.0613 354.693 56.7494 355.699 56.1254C356.721 55.5015 357.549 54.665 358.187 53.6156C358.841 52.5665 359.322 51.4178 359.635 50.1702C359.96 48.9224 360.123 47.6745 360.123 46.427ZM395.877 60.8895H388.816L379.288 43.3429C378.678 42.2368 377.877 40.5211 376.883 38.196C377.322 41.2159 377.543 43.7116 377.543 45.6825V60.8895H371.969V31.8365H378.884L388.644 49.4257C388.985 50.0497 389.206 50.4963 389.304 50.7656C389.417 51.0349 389.623 51.5454 389.92 52.2969C390.218 53.0484 390.525 53.807 390.837 54.5727C390.482 52.5451 390.304 50.1773 390.304 47.469V31.8365H395.877V60.8895ZM413.911 60.8895H408.043V36.6221H399.749V31.8365H422.27V36.6221H413.911V60.8895ZM453.218 46.5546C453.218 49.4469 452.65 52.0346 451.515 54.3175C450.396 56.6003 448.764 58.3797 446.623 59.6561C444.482 60.9178 441.96 61.5487 439.052 61.5487C436.061 61.5487 433.488 60.9107 431.331 59.6346C429.178 58.3586 427.546 56.5721 426.439 54.2751C425.347 51.9638 424.801 49.3193 424.801 46.3417C424.801 43.3641 425.356 40.734 426.46 38.4512C427.568 36.1684 429.19 34.396 431.331 33.134C433.488 31.8576 436.061 31.2196 439.052 31.2196C441.322 31.2196 443.35 31.5954 445.135 32.3469C446.92 33.0984 448.411 34.1619 449.601 35.5374C450.791 36.9125 451.693 38.5291 452.304 40.3865C452.911 42.2438 453.218 44.3 453.218 46.5546ZM446.985 46.427C446.985 45.165 446.828 43.903 446.518 42.6411C446.206 41.3791 445.718 40.2236 445.049 39.1742C444.399 38.1248 443.568 37.2883 442.561 36.6644C441.555 36.0264 440.371 35.7073 439.009 35.7073C437.224 35.7073 435.727 36.2392 434.522 37.3024C433.331 38.3659 432.451 39.7273 431.883 41.3862C431.316 43.031 431.034 44.711 431.034 46.427C431.034 48.1426 431.316 49.8227 431.883 51.4675C432.451 53.0981 433.337 54.438 434.543 55.4874C435.764 56.5365 437.267 57.0613 439.052 57.0613C440.387 57.0613 441.555 56.7494 442.561 56.1254C443.583 55.5015 444.411 54.665 445.049 53.6156C445.703 52.5665 446.184 51.4178 446.497 50.1702C446.822 48.9224 446.985 47.6745 446.985 46.427ZM482.739 60.8895H475.678L466.147 43.3429C465.54 42.2368 464.736 40.5211 463.745 38.196C464.184 41.2159 464.405 43.7116 464.405 45.6825V60.8895H458.831V31.8365H465.745L475.506 49.4257C475.847 50.0497 476.068 50.4963 476.166 50.7656C476.279 51.0349 476.485 51.5454 476.782 52.2969C477.08 53.0484 477.387 53.807 477.696 54.5727C477.344 52.5451 477.166 50.1773 477.166 47.469V31.8365H482.739V60.8895ZM519.043 56.1466V60.8895H501.837V31.8365H507.709V56.1466H519.043ZM550.288 46.5546C550.288 49.4469 549.721 52.0346 548.586 54.3175C547.466 56.6003 545.834 58.3797 543.693 59.6561C541.552 60.9178 539.031 61.5487 536.123 61.5487C533.132 61.5487 530.558 60.9107 528.402 59.6346C526.245 58.3586 524.617 56.5721 523.509 54.2751C522.417 51.9638 521.871 49.3193 521.871 46.3417C521.871 43.3641 522.426 40.734 523.531 38.4512C524.638 36.1684 526.261 34.396 528.402 33.134C530.558 31.8576 533.132 31.2196 536.123 31.2196C538.393 31.2196 540.42 31.5954 542.206 32.3469C543.991 33.0984 545.482 34.1619 546.672 35.5374C547.862 36.9125 548.764 38.5291 549.374 40.3865C549.982 42.2438 550.288 44.3 550.288 46.5546ZM544.055 46.427C544.055 45.165 543.899 43.903 543.589 42.6411C543.276 41.3791 542.785 40.2236 542.12 39.1742C541.469 38.1248 540.638 37.2883 539.632 36.6644C538.626 36.0264 537.442 35.7073 536.08 35.7073C534.295 35.7073 532.798 36.2392 531.592 37.3024C530.402 38.3659 529.522 39.7273 528.954 41.3862C528.387 43.031 528.104 44.711 528.104 46.427C528.104 48.1426 528.387 49.8227 528.954 51.4675C529.522 53.0981 530.408 54.438 531.614 55.4874C532.834 56.5365 534.337 57.0613 536.123 57.0613C537.454 57.0613 538.626 56.7494 539.632 56.1254C540.653 55.5015 541.482 54.665 542.12 53.6156C542.773 52.5665 543.255 51.4178 543.568 50.1702C543.893 48.9224 544.055 47.6745 544.055 46.427ZM576.896 55.0193L577.107 60.1451C574.696 60.7831 572.491 61.1021 570.494 61.1021C568.224 61.1021 566.126 60.8046 564.196 60.2089C562.27 59.6135 560.568 58.7061 559.092 57.4865C557.632 56.253 556.506 54.7288 555.712 52.9138C554.933 51.0987 554.54 49.0073 554.54 46.6395C554.54 44.2718 554.896 42.1518 555.604 40.28C556.313 38.4086 557.341 36.8276 558.687 35.5374C560.049 34.2328 561.681 33.2546 563.58 32.6021C565.482 31.95 567.607 31.6239 569.96 31.6239C572.058 31.6239 574.399 32.042 576.979 32.8788L576.512 37.8555C574.598 36.8064 572.521 36.2816 570.279 36.2816C568.38 36.2816 566.706 36.6929 565.261 37.5153C563.813 38.3236 562.702 39.4576 561.92 40.9184C561.156 42.3788 560.773 44.0589 560.773 45.9589C560.773 47.9297 561.178 49.7021 561.985 51.276C562.807 52.85 563.969 54.0693 565.472 54.9343C566.976 55.7994 568.733 56.2316 570.748 56.2316C572.663 56.2316 574.712 55.8276 576.896 55.0193ZM607.991 60.8895H601.589L599.055 54.2751H587.04L584.552 60.8895H578.491L589.825 31.8365H596.356L607.991 60.8895ZM597.27 49.5107L593.528 39.238C593.442 39.011 593.252 38.373 592.951 37.3239C592.841 37.7635 592.727 38.2101 592.614 38.6638C592.5 39.1033 592.399 39.4576 592.313 39.7273L588.825 49.5107H597.27ZM629.089 56.1466V60.8895H611.88V31.8365H617.752V56.1466H629.089Z" fill="#7AC6D4"/>
<path d="M333.801 144.939H318.092V99.0073C318.319 92.0254 318.663 85.0248 319.117 78.0051H318.663C317.902 81.0784 317.126 83.7726 316.328 86.0873L296.522 144.939H282.065L265.274 96.3321C263.188 90.261 261.404 84.1521 259.924 78.0051H259.469C260.228 85.518 260.607 92.329 260.607 98.4379V144.939H245.695V67.191H270.511L284.626 108C286.827 114.564 288.496 120.939 289.634 127.124C290.318 123.861 290.963 121.034 291.57 118.643C292.215 116.215 292.936 113.786 293.733 111.358L308.644 67.191H333.801V144.939ZM424.755 106.577C424.755 114.318 423.236 121.243 420.199 127.351C417.203 133.46 412.841 138.222 407.111 141.637C401.38 145.014 394.626 146.703 386.847 146.703C378.841 146.703 371.954 144.996 366.187 141.581C360.42 138.166 356.055 133.385 353.095 127.238C350.175 121.053 348.715 113.976 348.715 106.008C348.715 98.0395 350.193 91.0008 353.153 84.8919C356.114 78.783 360.457 74.0398 366.187 70.6628C371.954 67.2481 378.841 65.5404 386.847 65.5404C392.917 65.5404 398.344 66.5459 403.126 68.557C407.905 70.568 411.89 73.4137 415.077 77.0944C418.264 80.7751 420.675 85.1005 422.307 90.0714C423.939 95.0419 424.755 100.544 424.755 106.577ZM408.077 106.235C408.077 102.859 407.66 99.4815 406.825 96.1045C405.991 92.7275 404.681 89.6349 402.899 86.8272C401.153 84.0192 398.933 81.7806 396.239 80.111C393.546 78.4036 390.377 77.5496 386.733 77.5496C381.954 77.5496 377.951 78.9726 374.724 81.8186C371.537 84.6643 369.184 88.307 367.666 92.7465C366.15 97.1478 365.39 101.644 365.39 106.235C365.39 110.827 366.15 115.323 367.666 119.725C369.184 124.088 371.555 127.674 374.782 130.482C378.043 133.29 382.068 134.694 386.847 134.694C390.414 134.694 393.546 133.859 396.239 132.189C398.969 130.52 401.19 128.281 402.899 125.473C404.644 122.665 405.933 119.592 406.767 116.253C407.641 112.914 408.077 109.575 408.077 106.235ZM477.914 144.939H458.675L431.583 67.191H448.374L464.936 117.22C466.304 121.091 467.555 125.246 468.693 129.685C469.945 124.676 471.255 120.123 472.62 116.025L488.727 67.191H504.322L477.914 144.939ZM561.295 132.246V144.939H514.795V67.191H560.841V79.9971H530.503V98.7794H558.279V111.472H530.503V132.246H561.295ZM593.227 144.939H577.402V67.191H602.902C608.025 67.191 612.672 67.76 616.847 68.8984C621.058 69.999 624.454 72.0668 627.034 75.1024C629.614 78.0999 630.905 82.2929 630.905 87.6809C630.905 92.6514 629.5 96.7683 626.693 100.032C623.883 103.257 620.034 105.249 615.138 106.008C617.681 106.956 619.577 108.341 620.831 110.163C622.083 111.984 623.371 114.526 624.699 117.789L635.914 144.939H618.439L609.902 122.912C608.727 119.725 607.494 117.448 606.203 116.082C604.911 114.678 603.301 113.767 601.365 113.35C599.466 112.895 596.755 112.667 593.227 112.667V144.939ZM593.111 100.658H600.114C604.172 100.658 607.512 99.8039 610.129 98.0965C612.785 96.3892 614.114 93.657 614.114 89.9005C614.114 82.8429 609.884 79.314 601.42 79.314H593.111V100.658Z" fill="#474E53"/>
<path d="M253.283 152.908V154.568H247.697V158.532H252.877V160.193H247.697V164.77H253.441V166.411H245.769V152.908H253.283ZM256.648 152.908H259.446C260.402 152.908 261.156 152.94 261.71 153.006C262.613 153.092 263.453 153.326 264.23 153.708C265.008 154.084 265.664 154.565 266.198 155.152C266.738 155.738 267.153 156.417 267.443 157.188C267.74 157.952 267.888 158.793 267.888 159.709C267.888 160.44 267.779 161.142 267.562 161.814C267.351 162.486 267.051 163.093 266.662 163.633C266.273 164.167 265.799 164.635 265.239 165.037C264.679 165.432 264.056 165.742 263.37 165.966C263.028 166.085 262.685 166.174 262.342 166.233C261.999 166.292 261.621 166.339 261.206 166.371C260.797 166.398 260.303 166.411 259.723 166.411H256.648V152.908ZM258.576 154.568V164.77H259.564C260.454 164.77 261.13 164.737 261.591 164.671C262.052 164.605 262.517 164.477 262.985 164.286C263.572 164.028 264.076 163.673 264.497 163.218C264.926 162.763 265.252 162.229 265.476 161.617C265.707 161.004 265.822 160.348 265.822 159.649C265.822 159.116 265.746 158.595 265.595 158.087C265.443 157.58 265.226 157.119 264.942 156.704C264.659 156.288 264.319 155.926 263.924 155.616C263.529 155.306 263.094 155.072 262.619 154.914C262.316 154.796 261.927 154.71 261.453 154.657C260.985 154.598 260.362 154.568 259.584 154.568H258.576ZM285.647 152.908V166.411H283.749V158.7C283.756 158.285 283.762 157.84 283.769 157.366C283.776 156.885 283.782 156.44 283.789 156.031C283.795 155.623 283.799 155.286 283.799 155.023C283.805 154.753 283.808 154.344 283.808 153.797C283.676 154.252 283.495 154.822 283.265 155.507C283.034 156.186 282.793 156.858 282.543 157.524C282.299 158.19 282.013 158.964 281.683 159.847L279.133 166.411H277.264L274.714 159.847C274.331 158.845 273.933 157.804 273.518 156.723C273.109 155.643 272.78 154.667 272.529 153.797C272.529 153.89 272.522 153.959 272.509 154.005C272.509 154.064 272.516 154.166 272.529 154.311C272.542 154.45 272.552 154.562 272.559 154.647C272.572 154.733 272.582 154.828 272.588 154.934C272.687 155.771 272.737 157.073 272.737 158.839V166.411H270.809V152.908H273.972L276.641 159.689C277.037 160.678 277.36 161.511 277.61 162.19C277.867 162.869 278.078 163.548 278.243 164.226C278.566 163.099 279.106 161.574 279.864 159.649L282.434 152.908H285.647ZM295.073 152.66C296.43 152.66 297.603 152.96 298.592 153.56C299.587 154.153 300.341 154.98 300.856 156.041C301.37 157.096 301.627 158.305 301.627 159.669C301.627 160.737 301.475 161.705 301.172 162.575C300.876 163.439 300.441 164.177 299.867 164.79C299.3 165.403 298.618 165.871 297.821 166.194C297.023 166.517 296.127 166.678 295.132 166.678C293.781 166.678 292.608 166.378 291.613 165.778C290.618 165.172 289.86 164.338 289.339 163.277C288.825 162.21 288.568 161.007 288.568 159.669C288.568 158.661 288.713 157.732 289.003 156.882C289.293 156.025 289.715 155.283 290.268 154.657C290.822 154.031 291.507 153.544 292.325 153.194C293.148 152.838 294.064 152.66 295.073 152.66ZM295.053 154.183C294.19 154.183 293.418 154.413 292.74 154.875C292.068 155.329 291.547 155.975 291.178 156.812C290.815 157.643 290.634 158.588 290.634 159.649C290.634 160.434 290.743 161.172 290.96 161.864C291.178 162.556 291.488 163.149 291.89 163.643C292.291 164.131 292.763 164.506 293.303 164.77C293.85 165.027 294.453 165.155 295.112 165.155C295.758 165.155 296.351 165.024 296.891 164.76C297.438 164.497 297.913 164.117 298.315 163.623C298.724 163.129 299.034 162.559 299.244 161.913C299.455 161.261 299.561 160.532 299.561 159.729C299.561 158.885 299.455 158.127 299.244 157.455C299.034 156.776 298.724 156.19 298.315 155.695C297.913 155.201 297.435 154.825 296.882 154.568C296.328 154.311 295.718 154.183 295.053 154.183ZM315.344 152.908V166.411H312.853L308.58 159.086C307.844 157.781 307.331 156.858 307.049 156.318C306.773 155.771 306.525 155.148 306.307 154.45C306.419 155.932 306.475 157.633 306.475 159.551V166.411H304.548V152.908H307.178L311.773 160.865C312.703 162.48 313.325 163.768 313.641 164.73C313.555 163.828 313.506 163.221 313.494 162.912C313.482 162.384 313.466 161.864 313.454 161.35C313.448 160.836 313.442 160.513 313.436 160.381C313.436 160.249 313.436 159.923 313.436 159.402V152.908H315.344ZM327.871 152.908V154.568H323.641V166.411H321.724V154.568H317.405V152.908H327.871ZM335.678 152.66C337.034 152.66 338.209 152.96 339.196 153.56C340.19 154.153 340.945 154.98 341.46 156.041C341.972 157.096 342.23 158.305 342.23 159.669C342.23 160.737 342.08 161.705 341.776 162.575C341.479 163.439 341.043 164.177 340.472 164.79C339.905 165.403 339.221 165.871 338.423 166.194C337.626 166.517 336.73 166.678 335.736 166.678C334.384 166.678 333.212 166.378 332.218 165.778C331.221 165.172 330.463 164.338 329.942 163.277C329.43 162.21 329.172 161.007 329.172 159.669C329.172 158.661 329.316 157.732 329.607 156.882C329.896 156.025 330.319 155.283 330.871 154.657C331.426 154.031 332.11 153.544 332.93 153.194C333.752 152.838 334.669 152.66 335.678 152.66ZM335.657 154.183C334.795 154.183 334.022 154.413 333.344 154.875C332.672 155.329 332.15 155.975 331.782 156.812C331.42 157.643 331.239 158.588 331.239 159.649C331.239 160.434 331.347 161.172 331.565 161.864C331.782 162.556 332.092 163.149 332.494 163.643C332.896 164.131 333.365 164.506 333.908 164.77C334.454 165.027 335.058 165.155 335.715 165.155C336.362 165.155 336.954 165.024 337.494 164.76C338.043 164.497 338.515 164.117 338.92 163.623C339.328 163.129 339.638 162.559 339.847 161.913C340.058 161.261 340.166 160.532 340.166 159.729C340.166 158.885 340.058 158.127 339.847 157.455C339.638 156.776 339.328 156.19 338.92 155.695C338.515 155.201 338.04 154.825 337.485 154.568C336.933 154.311 336.322 154.183 335.657 154.183ZM355.948 152.908V166.411H353.454L349.184 159.086C348.448 157.781 347.936 156.858 347.653 156.318C347.374 155.771 347.129 155.148 346.911 154.45C347.025 155.932 347.08 157.633 347.08 159.551V166.411H345.15V152.908H347.782L352.377 160.865C353.307 162.48 353.93 163.768 354.245 164.73C354.16 163.828 354.111 163.221 354.098 162.912C354.086 162.384 354.071 161.864 354.058 161.35C354.052 160.836 354.046 160.513 354.04 160.381C354.04 160.249 354.04 159.923 354.04 159.402V152.908H355.948ZM374.313 152.908V154.568H370.083V166.411H368.166V154.568H363.844V152.908H374.313ZM376.384 152.908H379.626C380.436 152.908 381.043 152.934 381.445 152.986C381.853 153.033 382.267 153.128 382.681 153.273C383.135 153.425 383.528 153.655 383.856 153.965C384.187 154.268 384.445 154.637 384.629 155.072C384.813 155.507 384.905 155.972 384.905 156.466C384.905 157.336 384.65 158.045 384.144 158.592C383.638 159.132 382.942 159.478 382.058 159.63C382.488 159.834 382.807 160.055 383.018 160.292C383.227 160.523 383.469 160.921 383.739 161.488L386.003 166.411H383.798L382.058 162.358C381.795 161.752 381.564 161.32 381.365 161.063C381.169 160.799 380.923 160.625 380.635 160.539C380.353 160.447 379.945 160.401 379.42 160.401H378.313V166.411H376.384V152.908ZM378.313 154.568V158.74H379.509C381.788 158.74 382.93 158.038 382.93 156.634C382.93 155.791 382.629 155.237 382.028 154.974C381.436 154.703 380.66 154.568 379.706 154.568H378.313ZM398.837 152.927V160.519C398.837 161.561 398.779 162.368 398.66 162.941C398.549 163.515 398.344 164.035 398.049 164.503C397.598 165.215 397 165.755 396.249 166.124C395.497 166.494 394.629 166.678 393.638 166.678C392.893 166.678 392.209 166.569 391.583 166.352C390.963 166.134 390.43 165.825 389.982 165.422C389.534 165.014 389.178 164.513 388.914 163.92C388.564 163.142 388.39 161.926 388.39 160.272V152.927H390.316V159.995C390.316 160.918 390.347 161.623 390.405 162.111C390.472 162.598 390.604 163.033 390.801 163.416C391.058 163.923 391.445 164.322 391.957 164.612C392.479 164.895 393.058 165.037 393.699 165.037C394.411 165.037 394.997 164.879 395.457 164.563C395.92 164.246 396.261 163.821 396.485 163.287C396.718 162.747 396.853 162.127 396.89 161.429C396.905 161.257 396.911 160.806 396.911 160.075V152.927H398.837ZM408.868 153.155L408.629 154.855C407.669 154.486 406.825 154.301 406.098 154.301C405.611 154.301 405.184 154.38 404.813 154.539C404.451 154.69 404.169 154.908 403.963 155.191C403.767 155.468 403.669 155.794 403.669 156.17C403.669 156.756 403.871 157.204 404.279 157.514C404.696 157.824 405.42 158.249 406.454 158.789C407.497 159.323 408.276 159.867 408.798 160.421C409.319 160.967 409.58 161.696 409.58 162.605C409.58 163.396 409.387 164.104 409.006 164.73C408.623 165.356 408.08 165.838 407.374 166.174C406.675 166.51 405.871 166.678 404.963 166.678C403.89 166.678 402.862 166.5 401.887 166.144L402.086 164.325C403.08 164.8 403.963 165.037 404.736 165.037C405.282 165.037 405.767 164.945 406.187 164.76C406.617 164.576 406.942 164.312 407.166 163.969C407.399 163.62 407.512 163.211 407.512 162.744C407.512 162.071 407.285 161.564 406.831 161.221C406.377 160.872 405.653 160.46 404.666 159.986C403.678 159.511 402.93 159.02 402.423 158.513C401.914 157.998 401.66 157.277 401.66 156.348C401.66 155.623 401.834 154.983 402.184 154.43C402.54 153.87 403.04 153.435 403.687 153.125C404.341 152.815 405.08 152.66 405.911 152.66C406.96 152.66 407.945 152.825 408.868 153.155ZM421.19 152.908V154.568H416.957V166.411H415.04V154.568H410.721V152.908H421.19ZM430.773 152.908V154.568H425.187V158.532H430.368V160.193H425.187V164.77H430.933V166.411H423.261V152.908H430.773ZM434.138 152.908H436.936C437.893 152.908 438.647 152.94 439.199 153.006C440.104 153.092 440.942 153.326 441.721 153.708C442.5 154.084 443.153 154.565 443.687 155.152C444.227 155.738 444.644 156.417 444.933 157.188C445.23 157.952 445.377 158.793 445.377 159.709C445.377 160.44 445.27 161.142 445.052 161.814C444.841 162.486 444.543 163.093 444.153 163.633C443.764 164.167 443.288 164.635 442.73 165.037C442.169 165.432 441.546 165.742 440.862 165.966C440.518 166.085 440.175 166.174 439.831 166.233C439.491 166.292 439.111 166.339 438.696 166.371C438.288 166.398 437.795 166.411 437.212 166.411H434.138V152.908ZM436.068 154.568V164.77H437.055C437.945 164.77 438.62 164.737 439.083 164.671C439.543 164.605 440.006 164.477 440.476 164.286C441.061 164.028 441.568 163.673 441.988 163.218C442.417 162.763 442.742 162.229 442.966 161.617C443.196 161.004 443.313 160.348 443.313 159.649C443.313 159.116 443.236 158.595 443.086 158.087C442.933 157.58 442.715 157.119 442.433 156.704C442.15 156.288 441.81 155.926 441.414 155.616C441.018 155.306 440.583 155.072 440.111 154.914C439.807 154.796 439.417 154.71 438.942 154.657C438.476 154.598 437.853 154.568 437.074 154.568H436.068ZM468.976 152.908V166.411H467.077V158.7C467.083 158.285 467.089 157.84 467.095 157.366C467.104 156.885 467.111 156.44 467.117 156.031C467.123 155.623 467.126 155.286 467.126 155.023C467.132 154.753 467.135 154.344 467.135 153.797C467.003 154.252 466.822 154.822 466.592 155.507C466.362 156.186 466.12 156.858 465.871 157.524C465.626 158.19 465.341 158.964 465.009 159.847L462.46 166.411H460.592L458.04 159.847C457.66 158.845 457.261 157.804 456.847 156.723C456.436 155.643 456.107 154.667 455.856 153.797C455.856 153.89 455.85 153.959 455.838 154.005C455.838 154.064 455.844 154.166 455.856 154.311C455.871 154.45 455.88 154.562 455.887 154.647C455.899 154.733 455.908 154.828 455.917 154.934C456.015 155.771 456.064 157.073 456.064 158.839V166.411H454.138V152.908H457.301L459.969 159.689C460.365 160.678 460.687 161.511 460.939 162.19C461.193 162.869 461.405 163.548 461.571 164.226C461.893 163.099 462.433 161.574 463.19 159.649L465.761 152.908H468.976ZM478.399 152.66C479.758 152.66 480.93 152.96 481.92 153.56C482.914 154.153 483.669 154.98 484.184 156.041C484.696 157.096 484.954 158.305 484.954 159.669C484.954 160.737 484.804 161.705 484.5 162.575C484.203 163.439 483.767 164.177 483.193 164.79C482.629 165.403 481.945 165.871 481.147 166.194C480.35 166.517 479.454 166.678 478.46 166.678C477.107 166.678 475.936 166.378 474.942 165.778C473.945 165.172 473.187 164.338 472.666 163.277C472.153 162.21 471.896 161.007 471.896 159.669C471.896 158.661 472.04 157.732 472.331 156.882C472.62 156.025 473.043 155.283 473.595 154.657C474.15 154.031 474.834 153.544 475.653 153.194C476.476 152.838 477.393 152.66 478.399 152.66ZM478.38 154.183C477.518 154.183 476.745 154.413 476.068 154.875C475.396 155.329 474.874 155.975 474.506 156.812C474.144 157.643 473.96 158.588 473.96 159.649C473.96 160.434 474.071 161.172 474.288 161.864C474.506 162.556 474.816 163.149 475.218 163.643C475.62 164.131 476.089 164.506 476.632 164.77C477.178 165.027 477.782 165.155 478.439 165.155C479.086 165.155 479.678 165.024 480.218 164.76C480.767 164.497 481.239 164.117 481.641 163.623C482.052 163.129 482.362 162.559 482.571 161.913C482.782 161.261 482.89 160.532 482.89 159.729C482.89 158.885 482.782 158.127 482.571 157.455C482.362 156.776 482.052 156.19 481.641 155.695C481.239 155.201 480.764 154.825 480.209 154.568C479.657 154.311 479.046 154.183 478.38 154.183ZM498.847 152.908L493.749 166.411H491.396L486.233 152.908H488.359L491.663 161.814C491.831 162.243 491.997 162.717 492.157 163.238C492.319 163.752 492.472 164.282 492.611 164.829C492.801 163.979 493.107 162.974 493.531 161.814L496.822 152.908H498.847ZM502.936 152.908V166.411H501.009V152.908H502.936ZM517.561 152.908V166.411H515.071L510.801 159.086C510.061 157.781 509.549 156.858 509.267 156.318C508.991 155.771 508.742 155.148 508.525 154.45C508.638 155.932 508.693 157.633 508.693 159.551V166.411H506.767V152.908H509.396L513.991 160.865C514.92 162.48 515.543 163.768 515.862 164.73C515.776 163.828 515.724 163.221 515.712 162.912C515.699 162.384 515.687 161.864 515.672 161.35C515.666 160.836 515.66 160.513 515.653 160.381C515.653 160.249 515.653 159.923 515.653 159.402V152.908H517.561ZM531.534 153.471L531.405 155.339C530.865 155.036 530.325 154.815 529.785 154.677C529.242 154.539 528.638 154.469 527.966 154.469C526.899 154.469 525.951 154.687 525.129 155.122C524.304 155.55 523.666 156.156 523.212 156.941C522.761 157.725 522.537 158.608 522.537 159.59C522.537 160.618 522.764 161.537 523.221 162.348C523.681 163.152 524.331 163.775 525.169 164.217C526.003 164.652 526.963 164.869 528.043 164.869C528.611 164.869 529.221 164.777 529.874 164.592V160.678H526.976V159.046H531.791V165.887C531.111 166.111 530.466 166.273 529.853 166.371C529.245 166.464 528.604 166.51 527.926 166.51C526.798 166.51 525.776 166.352 524.862 166.035C523.945 165.719 523.153 165.254 522.488 164.641C521.822 164.029 521.319 163.297 520.976 162.447C520.641 161.597 520.472 160.638 520.472 159.57C520.472 158.167 520.795 156.957 521.442 155.942C522.092 154.921 522.976 154.147 524.089 153.619C525.212 153.092 526.463 152.828 527.847 152.828C529.19 152.828 530.42 153.043 531.534 153.471ZM550.592 153.412L550.436 155.26C549.926 154.964 549.463 154.759 549.04 154.647C548.62 154.529 548.144 154.469 547.617 154.469C546.871 154.469 546.187 154.591 545.561 154.835C544.942 155.072 544.402 155.418 543.939 155.873C543.479 156.328 543.123 156.868 542.871 157.494C542.623 158.114 542.497 158.799 542.497 159.551C542.497 160.539 542.721 161.435 543.169 162.239C543.623 163.037 544.245 163.663 545.037 164.117C545.834 164.566 546.724 164.79 547.706 164.79C548.623 164.79 549.583 164.589 550.592 164.187L550.739 166.045C550.215 166.217 549.733 166.339 549.298 166.411C548.868 166.477 548.359 166.51 547.764 166.51C546.35 166.51 545.083 166.236 543.969 165.689C542.862 165.142 541.994 164.348 541.368 163.307C540.742 162.259 540.43 161.02 540.43 159.59C540.43 158.285 540.727 157.119 541.319 156.09C541.92 155.063 542.761 154.262 543.841 153.688C544.93 153.115 546.153 152.828 547.518 152.828C548.696 152.828 549.724 153.023 550.592 153.412ZM558.902 152.66C560.258 152.66 561.433 152.96 562.42 153.56C563.414 154.153 564.169 154.98 564.684 156.041C565.199 157.096 565.454 158.305 565.454 159.669C565.454 160.737 565.304 161.705 565 162.575C564.703 163.439 564.27 164.177 563.696 164.79C563.129 165.403 562.448 165.871 561.65 166.194C560.853 166.517 559.954 166.678 558.96 166.678C557.61 166.678 556.436 166.378 555.442 165.778C554.445 165.172 553.687 164.338 553.169 163.277C552.653 162.21 552.396 161.007 552.396 159.669C552.396 158.661 552.54 157.732 552.831 156.882C553.123 156.025 553.543 155.283 554.095 154.657C554.65 154.031 555.334 153.544 556.153 153.194C556.976 152.838 557.893 152.66 558.902 152.66ZM558.88 154.183C558.018 154.183 557.245 154.413 556.568 154.875C555.896 155.329 555.374 155.975 555.006 156.812C554.644 157.643 554.463 158.588 554.463 159.649C554.463 160.434 554.571 161.172 554.788 161.864C555.006 162.556 555.316 163.149 555.718 163.643C556.12 164.131 556.592 164.506 557.132 164.77C557.678 165.027 558.282 165.155 558.942 165.155C559.586 165.155 560.181 165.024 560.721 164.76C561.267 164.497 561.742 164.117 562.144 163.623C562.552 163.129 562.862 162.559 563.074 161.913C563.282 161.261 563.39 160.532 563.39 159.729C563.39 158.885 563.282 158.127 563.074 157.455C562.862 156.776 562.552 156.19 562.144 155.695C561.742 155.201 561.264 154.825 560.709 154.568C560.157 154.311 559.546 154.183 558.88 154.183ZM583.215 152.908V166.411H581.316V158.7C581.322 158.285 581.328 157.84 581.334 157.366C581.344 156.885 581.35 156.44 581.356 156.031C581.362 155.623 581.365 155.286 581.365 155.023C581.371 154.753 581.374 154.344 581.374 153.797C581.242 154.252 581.061 154.822 580.831 155.507C580.601 156.186 580.359 156.858 580.111 157.524C579.865 158.19 579.58 158.964 579.249 159.847L576.699 166.411H574.831L572.282 159.847C571.899 158.845 571.5 157.804 571.086 156.723C570.675 155.643 570.347 154.667 570.095 153.797C570.095 153.89 570.089 153.959 570.077 154.005C570.077 154.064 570.083 154.166 570.095 154.311C570.11 154.45 570.12 154.562 570.126 154.647C570.138 154.733 570.147 154.828 570.156 154.934C570.255 155.771 570.304 157.073 570.304 158.839V166.411H568.377V152.908H571.54L574.209 159.689C574.604 160.678 574.926 161.511 575.178 162.19C575.436 162.869 575.644 163.548 575.81 164.226C576.132 163.099 576.672 161.574 577.433 159.649L580 152.908H583.215ZM586.926 152.908H589.604C590.568 152.908 591.285 152.937 591.761 152.997C592.233 153.049 592.657 153.148 593.025 153.293C593.776 153.563 594.368 154.028 594.804 154.687C595.245 155.339 595.466 156.09 595.466 156.941C595.466 157.508 595.368 158.035 595.172 158.522C594.979 159.004 594.703 159.425 594.341 159.788C593.985 160.144 593.558 160.421 593.064 160.618C592.715 160.75 592.288 160.849 591.779 160.915C591.273 160.974 590.653 161.004 589.92 161.004H588.853V166.411H586.926V152.908ZM588.853 154.568V159.363H589.902C590.936 159.363 591.779 159.195 592.433 158.859C593.086 158.516 593.411 157.877 593.411 156.941C593.411 156.493 593.31 156.101 593.104 155.764C592.899 155.422 592.604 155.155 592.215 154.964C591.831 154.766 591.365 154.647 590.81 154.608C590.384 154.582 589.73 154.568 588.853 154.568ZM604.003 152.908L609.856 166.411H607.681L606.267 162.991H599.703L598.31 166.411H596.224L601.976 152.908H604.003ZM605.595 161.35L604.043 157.583C603.733 156.865 603.503 156.302 603.35 155.893C603.199 155.478 603.064 155.036 602.945 154.568C602.847 154.931 602.727 155.293 602.589 155.656C602.457 156.012 602.196 156.667 601.807 157.623L600.316 161.35H605.595ZM622.699 152.908V166.411H620.209L615.939 159.086C615.203 157.781 614.69 156.858 614.408 156.318C614.129 155.771 613.884 155.148 613.666 154.45C613.776 155.932 613.834 157.633 613.834 159.551V166.411H611.905V152.908H614.537L619.132 160.865C620.061 162.48 620.684 163.768 621 164.73C620.914 163.828 620.865 163.221 620.853 162.912C620.841 162.384 620.825 161.864 620.813 161.35C620.807 160.836 620.801 160.513 620.795 160.381C620.795 160.249 620.795 159.923 620.795 159.402V152.908H622.699ZM637.276 152.908L632.009 160.678V166.411H630.089V160.747L624.742 152.908H627.135L630.476 157.969C630.745 158.371 630.939 158.707 631.058 158.977C631.249 158.608 631.436 158.292 631.614 158.028L634.994 152.908H637.276Z" fill="#474E53"/>
</g>
</g>
<defs>
<clipPath id="clip0_13_355">
<rect width="638.957" height="200" fill="white"/>
</clipPath>
</defs>
</svg>
